<mxfile host="app.diagrams.net" modified="2022-04-20T08:20:02.080Z" agent="5.0 (Windows NT 10.0; Win64; x64) AppleWebKit/537.36 (KHTML, like Gecko) Chrome/100.0.4896.127 Safari/537.36" etag="MueXj0tKWoWrntnQazRg" version="17.4.5" type="github">
  <diagram id="QQGfE8T_0_qTIBGh_q0m" name="Page-1">
    <mxGraphModel dx="1218" dy="1112" grid="1" gridSize="10" guides="1" tooltips="1" connect="1" arrows="1" fold="1" page="1" pageScale="1" pageWidth="850" pageHeight="1100" math="0" shadow="0">
      <root>
        <mxCell id="0" />
        <mxCell id="1" parent="0" />
        <mxCell id="-lQ-ry36EHElyneKfI74-1" value="SM-DP" style="rounded=0;whiteSpace=wrap;html=1;" vertex="1" parent="1">
          <mxGeometry x="340" y="110" width="120" height="60" as="geometry" />
        </mxCell>
        <mxCell id="-lQ-ry36EHElyneKfI74-2" value="SM-SR" style="rounded=0;whiteSpace=wrap;html=1;" vertex="1" parent="1">
          <mxGeometry x="340" y="310" width="120" height="60" as="geometry" />
        </mxCell>
        <mxCell id="-lQ-ry36EHElyneKfI74-3" value="eUICC" style="rounded=0;whiteSpace=wrap;html=1;verticalAlign=top;fillColor=#d5e8d4;strokeColor=#82b366;" vertex="1" parent="1">
          <mxGeometry x="220" y="500" width="360" height="180" as="geometry" />
        </mxCell>
        <mxCell id="-lQ-ry36EHElyneKfI74-4" value="Operator" style="rounded=0;whiteSpace=wrap;html=1;" vertex="1" parent="1">
          <mxGeometry x="690" y="110" width="120" height="60" as="geometry" />
        </mxCell>
        <mxCell id="-lQ-ry36EHElyneKfI74-5" value="ECASD&lt;br&gt;contains Certificates and eUICC PrivKey&amp;nbsp;" style="rounded=1;whiteSpace=wrap;html=1;fillColor=#f5f5f5;fontColor=#333333;strokeColor=#666666;" vertex="1" parent="1">
          <mxGeometry x="220" y="620" width="120" height="60" as="geometry" />
        </mxCell>
        <mxCell id="-lQ-ry36EHElyneKfI74-12" value="ES5&lt;br&gt;TLS-PSK&lt;br&gt;SCP80 Secured" style="edgeStyle=orthogonalEdgeStyle;rounded=0;orthogonalLoop=1;jettySize=auto;html=1;exitX=0.75;exitY=0;exitDx=0;exitDy=0;entryX=0.75;entryY=1;entryDx=0;entryDy=0;startArrow=classic;startFill=1;" edge="1" parent="1" source="-lQ-ry36EHElyneKfI74-6" target="-lQ-ry36EHElyneKfI74-2">
          <mxGeometry x="0.36" relative="1" as="geometry">
            <mxPoint as="offset" />
          </mxGeometry>
        </mxCell>
        <mxCell id="-lQ-ry36EHElyneKfI74-6" value="ISD-R&lt;br&gt;On-Card rep. &lt;br&gt;of SM-SR" style="rounded=1;whiteSpace=wrap;html=1;fillColor=#f5f5f5;fontColor=#333333;strokeColor=#666666;" vertex="1" parent="1">
          <mxGeometry x="340" y="620" width="120" height="60" as="geometry" />
        </mxCell>
        <mxCell id="-lQ-ry36EHElyneKfI74-11" value="Profile" style="rounded=0;whiteSpace=wrap;html=1;verticalAlign=top;fillColor=#dae8fc;strokeColor=#6c8ebf;" vertex="1" parent="1">
          <mxGeometry x="460" y="520" width="120" height="160" as="geometry" />
        </mxCell>
        <mxCell id="-lQ-ry36EHElyneKfI74-7" value="ISD-P&lt;br&gt;On-Card rep. &lt;br&gt;of SM-DP" style="rounded=1;whiteSpace=wrap;html=1;fillColor=#f5f5f5;strokeColor=#666666;fontColor=#333333;" vertex="1" parent="1">
          <mxGeometry x="465" y="620" width="110" height="60" as="geometry" />
        </mxCell>
        <mxCell id="-lQ-ry36EHElyneKfI74-8" value="MNO-SD&lt;br&gt;On-Card rep.&lt;br&gt;of MNO" style="rounded=1;whiteSpace=wrap;html=1;fillColor=#f5f5f5;strokeColor=#666666;fontColor=#333333;" vertex="1" parent="1">
          <mxGeometry x="465" y="560" width="110" height="60" as="geometry" />
        </mxCell>
        <mxCell id="-lQ-ry36EHElyneKfI74-14" value="&lt;ul&gt;&lt;li&gt;&lt;font style=&quot;font-size: 9px&quot;&gt;SM-SR sends SMS to start HTTPS-Channel&lt;/font&gt;&lt;/li&gt;&lt;li&gt;&lt;font style=&quot;font-size: 9px&quot;&gt;ISD-R starts TLS-Handshake with stored PSK of ECASD&lt;/font&gt;&lt;/li&gt;&lt;li&gt;&lt;font style=&quot;font-size: 9px&quot;&gt;Session Key is derived and SCP80 Channel established&lt;/font&gt;&lt;/li&gt;&lt;li&gt;&lt;font style=&quot;font-size: 9px&quot;&gt;Communicate via HTTP POST/Response&amp;nbsp;&lt;/font&gt;&lt;/li&gt;&lt;/ul&gt;" style="whiteSpace=wrap;html=1;backgroundOutline=1;darkOpacity=0.05;rounded=1;align=left;verticalAlign=middle;" vertex="1" parent="1">
          <mxGeometry x="480" y="300" width="140" height="190" as="geometry" />
        </mxCell>
      </root>
    </mxGraphModel>
  </diagram>
</mxfile>
